<?xml version="1.0" standalone="no"?>
<!DOCTYPE svg PUBLIC "-//W3C//DTD SVG 20010904//EN"
 "http://www.w3.org/TR/2001/REC-SVG-20010904/DTD/svg10.dtd">
<svg version="1.0" xmlns="http://www.w3.org/2000/svg"
 width="500.000000pt" height="500.000000pt" viewBox="0 0 500.000000 500.000000"
 preserveAspectRatio="xMidYMid meet">

<g transform="translate(0.000000,500.000000) scale(0.100000,-0.100000)"
fill="#000000" stroke="none">
<path d="M100 2895 l0 -75 445 0 445 0 0 75 0 75 -445 0 -445 0 0 -75z"/>
<path d="M1150 2895 l0 -75 370 0 370 0 0 -290 0 -290 -445 0 -445 0 0 -75 0
-75 520 0 519 0 3 73 c2 39 2 237 0 440 l-2 367 -445 0 -445 0 0 -75z"/>
<path d="M3946 2864 c-33 -33 -14 -94 34 -109 20 -6 59 9 72 29 14 20 8 63
-10 79 -23 21 -76 22 -96 1z"/>
<path d="M3760 2765 l0 -96 -28 21 c-44 33 -90 35 -142 7 -80 -42 -115 -139
-86 -239 31 -108 127 -156 219 -109 29 15 37 16 37 5 0 -10 15 -14 60 -14 l60
0 0 260 0 260 -60 0 -60 0 0 -95z m-25 -180 c18 -18 25 -35 25 -65 0 -51 -27
-80 -74 -80 -45 0 -75 27 -83 72 -5 32 -1 41 25 68 37 37 74 39 107 5z"/>
<path d="M2365 2715 c-5 -2 -22 -6 -37 -9 -69 -15 -114 -93 -88 -155 14 -34
33 -45 130 -75 80 -24 96 -40 55 -56 -30 -12 -69 -4 -86 16 -16 20 -119 19
-119 0 0 -30 52 -76 103 -91 60 -18 88 -19 141 -4 59 16 96 58 96 109 0 23 -5
50 -11 62 -13 25 -75 52 -152 68 -45 9 -57 15 -55 28 4 23 80 29 98 7 17 -20
120 -22 120 -1 0 20 -38 64 -69 80 -27 14 -108 28 -126 21z"/>
<path d="M2751 2705 c-84 -26 -131 -93 -131 -186 0 -70 36 -131 93 -161 85
-44 215 -20 257 47 30 49 26 55 -33 55 -40 0 -57 -5 -70 -20 -25 -29 -81 -27
-112 5 -50 49 -39 55 110 55 l135 0 0 37 c0 120 -128 207 -249 168z m109 -95
c33 -33 24 -40 -50 -40 -38 0 -70 4 -70 10 0 19 44 50 72 50 15 0 37 -9 48
-20z"/>
<path d="M3246 2710 c-15 -5 -37 -17 -47 -26 -18 -16 -19 -16 -19 4 0 20 -5
22 -55 22 l-55 0 0 -185 0 -185 55 0 55 0 0 115 c0 102 2 117 20 135 22 22 51
26 81 10 17 -10 19 -22 19 -135 l0 -125 61 0 61 0 -4 143 c-2 116 -6 148 -21
170 -34 52 -94 75 -151 57z"/>
<path d="M4244 2713 c-38 -7 -103 -71 -114 -111 -29 -104 4 -201 80 -239 55
-28 94 -29 143 -3 l37 20 0 -39 c0 -31 -6 -44 -27 -61 -34 -27 -91 -22 -112
10 -19 28 -121 30 -121 3 0 -32 38 -82 77 -101 105 -53 211 -30 271 58 21 32
22 42 22 246 l0 214 -55 0 c-49 0 -55 -2 -55 -20 0 -21 0 -21 -27 -1 -29 21
-83 32 -119 24z m129 -134 c40 -49 1 -132 -63 -132 -59 0 -103 80 -67 125 33
42 97 46 130 7z"/>
<path d="M4701 2705 c-154 -48 -180 -267 -40 -345 132 -73 289 12 289 157 0
94 -44 158 -129 188 -52 18 -62 18 -120 0z m122 -126 c23 -29 22 -80 -4 -113
-46 -58 -139 -19 -139 58 0 76 95 112 143 55z"/>
<path d="M3940 2525 l0 -185 55 0 55 0 0 185 0 185 -55 0 -55 0 0 -185z"/>
<path d="M670 2535 l0 -75 375 0 376 0 -3 73 -3 72 -372 3 -373 2 0 -75z"/>
</g>
</svg>
